HIERARCHY
ROOT Hips
{
	OFFSET	0	0	0
	CHANNELS 6  Xposition Yposition Zposition Xrotation Yrotation Zrotation
	JOINT Spine
	{
		OFFSET	0	6.96085	1.39713
		CHANNELS 3  Xrotation Yrotation Zrotation
		JOINT Spine1
		{
			OFFSET	0	11.9146	-2.1276
			CHANNELS 3  Xrotation Yrotation Zrotation
			JOINT Spine2
			{
				OFFSET	0	9.03168	0.96806
				CHANNELS 3  Xrotation Yrotation Zrotation
				JOINT Spine3
				{
					OFFSET	0	10.8082	3.21268
					CHANNELS 3  Xrotation Yrotation Zrotation
					JOINT Spine4
					{
						OFFSET	0	15.9996	-1.63826
						CHANNELS 3  Xrotation Yrotation Zrotation
						JOINT Neck
						{
							OFFSET	0	7.6381	-5.35092
							CHANNELS 3  Xrotation Yrotation Zrotation
							JOINT Head
							{
								OFFSET	0	9.16998	-2.74461
								CHANNELS 3  Xrotation Yrotation Zrotation
								End Site
								{
									OFFSET	0	19.1272	-0.925508
								}
							}
						}
					}
					JOINT LeftShoulder
					{
						OFFSET	-4.59563	19.4463	-9.16997
						CHANNELS 3  Xrotation Yrotation Zrotation
						JOINT LeftArm
						{
							OFFSET	-10.0457	-2.74461	3.52121
							CHANNELS 3  Xrotation Yrotation Zrotation
							JOINT LeftForeArm
							{
								OFFSET	-31.2362	-1.42567	2.22961
								CHANNELS 3  Xrotation Yrotation Zrotation
								JOINT LeftHand
								{
									OFFSET	-26.6039	-1.83848	1.89896
									CHANNELS 3  Xrotation Yrotation Zrotation
									End Site
									{
										OFFSET	-9.70909	-0.670953	0.692979
									}
								}
							}
						}
					}
					JOINT RightShoulder
					{
						OFFSET	4.59563	19.4463	-9.16997
						CHANNELS 3  Xrotation Yrotation Zrotation
						JOINT RightArm
						{
							OFFSET	10.0457	-2.74461	3.52121
							CHANNELS 3  Xrotation Yrotation Zrotation
							JOINT RightForeArm
							{
								OFFSET	31.2362	-1.42567	2.22961
								CHANNELS 3  Xrotation Yrotation Zrotation
								JOINT RightHand
								{
									OFFSET	26.6039	-1.83848	1.89896
									CHANNELS 3  Xrotation Yrotation Zrotation
									End Site
									{
										OFFSET	9.70909	-0.670953	0.692979
									}
								}
							}
						}
					}
				}
			}
		}
	}
	JOINT LeftUpLeg
	{
		OFFSET	-9.47252	-3.48043	-0.698563
		CHANNELS 3  Xrotation Yrotation Zrotation
		JOINT LeftLeg
		{
			OFFSET	-2.10259	-41.1994	-0.644037
			CHANNELS 3  Xrotation Yrotation Zrotation
			JOINT LeftFoot
			{
				OFFSET	-2.05598	-37.8983	3.25925
				CHANNELS 3  Xrotation Yrotation Zrotation
				JOINT LeftToeBase
				{
					OFFSET	0	-4.64446	-12.3357
					CHANNELS 3  Xrotation Yrotation Zrotation
					End Site
					{
						OFFSET	0	-1.85779	-7.43114
					}
				}
			}
		}
	}
	JOINT RightUpLeg
	{
		OFFSET	9.47252	-3.48043	-0.698563
		CHANNELS 3  Xrotation Yrotation Zrotation
		JOINT RightLeg
		{
			OFFSET	2.10259	-41.1994	-0.644037
			CHANNELS 3  Xrotation Yrotation Zrotation
			JOINT RightFoot
			{
				OFFSET	2.05598	-37.8983	3.25925
				CHANNELS 3  Xrotation Yrotation Zrotation
				JOINT RightToeBase
				{
					OFFSET	0	-4.64446	-12.3357
					CHANNELS 3  Xrotation Yrotation Zrotation
					End Site
					{
						OFFSET	0	-1.85779	-7.43114
					}
				}
			}
		}
	}
}
MOTION
Frames: 18
Frame Time: 0.020408
 98.189 88.7862 -188.401 175.639 -148.986 178.016 3.24066e-05 -0.00536304 0.34621 1.44522 -0.0107257 0.577017 2.79723 -0.0321772 0.577017 5.01882 -0.00536304 0.34621 171.019 -179.982 -179.886 152.898 178.268 169.946 171.861 174.653 178.267 169.985 172.2 161.664 3.44729 -40.9399 86.0589 56.9785 -29.9246 34.9188 -0 7.58407 8.53127 174.984 164.372 -169.268 62.1951 -13.4806 -60.2553 116.305 33.9164 -128.559 -0 -5.66754 -15.5681 11.0667 36.6972 -11.3077 153.062 170.037 179.612 1.81136 -0.00525062 -11.4495 17.5863 0 0 19.7443 -1.72368 0.936137 146.843 -171.989 -179.884 2.12452 0.135192 -4.98495 18.613 0 0
 98.0501 88.7436 -188.502 175.065 -149.761 177.432 1.2487e-05 -0.00276757 0.258512 1.35342 -0.00553503 0.430854 2.687 -0.0166051 0.430854 4.90276 -0.00276757 0.258512 171.117 -179.987 -179.915 153.27 178.204 170.658 171.969 174.55 178.456 169.565 171.648 160.972 4.96058 -40.666 87.9487 57.5577 -30.4898 35.8967 -0 8.07174 8.70645 175.537 164.117 -170.455 62.5163 -13.9873 -60.2396 115.862 33.634 -128.503 -0 -6.07147 -15.5908 13.128 39.2833 -12.3491 151.993 169.991 179.607 1.31963 0.0280016 -11.4487 17.6196 0 0 19.768 -2.42006 1.51075 147.798 -171.092 -179.951 2.72624 0.108758 -4.74577 18.6277 0 0
 97.7621 88.73 -188.69 174.582 -150.458 177.013 180 179.996 -179.822 1.26108 0.00831399 0.297247 2.56168 0.024942 0.297247 4.74279 0.00415703 0.178348 171.316 -179.991 -179.941 153.939 177.887 171.986 172.158 174.023 178.86 169.501 170.582 161.106 4.8786 -40.2523 88.499 58.241 -31.0241 37.0662 -0 8.69196 9.28883 176.14 164.232 -171.759 62.7711 -14.7054 -60.0643 115.98 32.6601 -129.483 -0 -6.26816 -15.5475 15.6306 41.9775 -13.8138 150.57 169.98 179.503 0.662889 0.0362604 -11.4502 17.6383 0 0 19.8334 -2.47531 2.37077 149.038 -170.048 -179.923 2.56739 0.0502469 -4.3051 18.6399 0 0
 97.5526 88.7251 -188.653 173.957 -151.408 176.574 180 179.998 -179.933 1.17816 0.00445168 0.111097 2.44701 0.013355 0.111097 4.59204 0.00222584 0.0666582 171.511 -179.997 -179.978 154.588 177.435 173.14 172.337 173.251 179.255 169.604 169.916 161.47 3.52686 -40.4728 87.7034 58.7482 -31.5249 38.194 -0 9.4048 10.1707 176.607 163.989 -172.756 62.7308 -15.0816 -59.8838 115.932 31.981 -130.003 -0 -6.72796 -15.9312 18.1663 43.9936 -15.353 149.752 169.934 179.301 179.813 179.917 168.546 17.6636 0 0 20.1272 -2.4117 2.53293 150.237 -170.247 179.892 2.90924 0.0150033 -3.90049 18.6513 0 0
 97.6302 88.7068 -188.74 173.274 -151.662 176.059 180 -179.996 179.975 1.07871 -0.00766722 -0.0423672 2.31542 -0.0230017 -0.0423672 4.42931 -0.00383361 -0.0254203 171.703 179.999 179.992 155.244 176.798 173.988 172.51 172.083 179.629 169.551 168.522 161.723 2.12492 -40.6045 86.7753 59.5659 -32.1866 39.6758 -0 10.1192 11.2952 177.174 163.771 -173.967 61.2058 -15.3501 -60.388 116.379 30.9116 -131.29 -0 -7.14742 -16.8926 21.1086 45.2742 -17.3234 148.381 169.909 179.362 178.511 179.911 168.74 17.6712 0 0 20.2103 -2.36728 2.80977 151.3 -170.417 179.983 3.22701 -0.0256261 -3.55313 18.6609 0 0
 97.5119 89.4507 -188.613 172.33 -153.044 175.549 180 -179.996 179.871 1.01271 -0.00816499 -0.215424 2.27381 -0.024495 -0.215424 4.45864 -0.00408251 -0.129254 171.509 179.994 179.957 154.746 175.806 172.466 172.315 169.839 179.592 169.385 166.83 161.863 179.195 -139.78 -95.7592 60.1013 -32.745 40.5973 -0 10.6801 11.9137 177.797 163.923 -175.302 59.6842 -15.7499 -61.0525 116.908 29.3767 -132.961 -0 -7.06549 -17.9827 24.2563 45.3552 -18.4108 147.883 169.905 179.263 174.562 179.889 169.137 17.6722 0 0 20.3224 -2.28081 2.51637 152.406 -170.54 -179.924 0.813256 -0.0939451 -3.25583 18.6671 0 0
 97.4161 89.9863 -188.281 171.774 -154.466 175.491 180 -179.996 179.739 0.95349 -0.0086847 -0.435008 2.24635 -0.0260541 -0.435008 4.51466 -0.00434243 -0.261005 171.267 179.987 179.914 154.115 174.381 171.627 172.041 166.99 179.841 169.72 166.358 162.602 178.035 -139.984 -97.438 59.8643 -32.6241 40.4364 -0 11.3701 11.9441 178.731 163.793 -177.296 57.0742 -16.5805 -60.5653 116.476 28.8915 -133.064 -0 -6.88609 -19.7071 27.3522 43.3152 -19.4769 147.094 169.88 179.409 171.627 179.864 169.86 17.6759 0 0 20.4842 -1.00923 1.88617 152.872 -171.708 -179.86 179.11 -179.886 177.062 18.6855 0 0
 97.224 90.2789 -187.87 171.123 -155.828 175.412 180 -179.997 179.632 0.893836 -0.0054692 -0.612949 2.18981 -0.0164076 -0.612949 4.48418 -0.0027347 -0.367769 171.225 179.981 179.879 154.054 173.454 170.933 171.954 165.022 179.978 170.444 166.455 163.878 177.795 -139.991 -98.3487 59.7816 -32.6535 40.3982 -0 11.8082 11.9896 179.543 163.533 -179.026 53.9047 -17.0928 -59.9056 115.967 28.5517 -132.833 -0 -6.68198 -21.5032 29.2972 41.3141 -19.5791 146.01 169.888 179.434 169.487 179.882 170.695 17.7119 0 0 21.0127 0.978477 1.24159 153.217 -173.092 -179.852 178.338 -179.876 177.347 18.7061 0 0
 97.0991 90.4534 -187.744 170.5 -156.71 175.057 1.97391e-05 0.00253786 -0.445628 0.817552 0.00507545 -0.742713 2.08637 0.0152264 -0.742713 4.35107 0.00253786 -0.445628 171.392 179.978 179.853 154.605 173.814 171.522 172.148 165.72 179.99 170.648 165.582 164.453 176.69 -140.325 -99.6368 59.7491 -32.6917 40.2541 -0 12.0089 12.0097 0.301954 16.6355 -0.644297 51.0892 -17.9457 -59.1132 115.064 28.8599 -131.113 -0 -6.30999 -22.8633 30.7112 39.324 -19.0902 145.623 170.05 179.625 168.566 179.911 171.669 17.7552 0 0 21.5741 3.2108 0.81406 153.932 -174.66 -179.884 178.23 -179.933 177.622 18.7307 0 0
 96.2299 90.5847 -187.55 169.731 -157.681 174.721 180 -180 179.492 0.755419 -0.000201331 -0.847258 1.96799 -0.000603994 -0.847258 4.14135 -0.000100673 -0.508355 171.764 179.976 179.832 155.724 174.494 172.037 172.533 166.908 179.886 171.011 164.745 165.286 175.877 -140.948 -100.602 59.9828 -32.8881 40.5467 -0 11.9665 12.1413 0.877009 16.9689 -1.87367 49.1748 -18.4612 -58.1766 113.97 29.4857 -129.374 -0 -6.0564 -24.384 31.7845 37.4423 -17.9853 146.02 170.826 179.79 168.378 179.951 172.817 17.7913 0 0 22.0941 5.3875 1.02153 154.331 -175.895 -179.75 177.596 -179.879 177.874 18.753 0 0
 94.7994 90.5397 -187.275 169.265 -158.114 174.34 4.57179e-05 0.00427919 -0.612113 0.617171 0.00855751 -1.02019 1.77824 0.0256725 -1.02019 3.89369 0.00427919 -0.612113 172.08 179.972 179.798 156.794 174.348 174.135 172.854 167.037 -179.643 171.633 164.796 166.338 176.739 -141.186 -100.085 60.3015 -33.065 41.4863 -0 12.1281 12.3895 1.20616 17.6458 -2.58272 47.282 -18.7263 -57.2551 112.83 30.1439 -127.428 -0 -5.71995 -25.6128 31.8297 35.5095 -15.6082 145.701 171.636 179.508 169.368 179.81 174.184 17.8625 0 0 22.9263 7.31961 2.07163 153.85 -176.445 -179.696 176.97 -179.82 178.239 18.7695 0 0
 94.2762 90.7731 -187.037 168.498 -158.818 173.681 4.31364e-06 0.000396374 -0.623511 0.518143 0.000792664 -1.03919 1.64377 0.00237799 -1.03919 3.72221 0.000396374 -0.623511 172.294 179.972 179.794 157.505 174.572 174.867 173.086 167.607 -179.57 171.49 163.481 166.393 176.578 -142.238 -100.392 60.8567 -33.4959 42.1119 -0 11.9347 12.4561 1.36272 19.0541 -2.92965 44.3766 -18.4762 -57.4606 112.033 30.7076 -125.544 -0 -5.40157 -26.6944 32.8363 32.7691 -14.1674 145.817 172.752 179.336 167.056 179.872 175.542 17.9172 0 0 23.6631 8.55103 2.90234 153.917 -176.957 179.602 176.15 -179.918 178.516 18.7801 0 0
 94.0041 91.2332 -186.882 167.661 -159.981 173.249 180 -179.999 179.382 0.450716 -0.00206483 -1.02981 1.54519 -0.0061945 -1.02981 3.58414 -0.00103252 -0.617888 172.488 179.973 179.796 158.134 174.472 175.274 173.273 167.47 -179.472 171.26 162.635 166.211 176.768 -143.001 -100.577 61.767 -34.0559 43.6709 -0 11.477 12.8245 1.16492 20.1319 -2.51058 41.3161 -17.6784 -57.736 111.766 30.9065 -124.576 -0 -5.16023 -27.5263 33.4303 30.3844 -12.8419 147.233 174.104 179.281 164.22 179.916 176.814 17.9599 0 0 24.4901 9.02018 3.20185 153.899 -176.873 179.728 174.363 -179.929 178.735 18.788 0 0
 94.13 91.39 -186.914 166.869 -161.045 172.881 1.07396e-05 0.000972079 -0.632985 0.398276 0.00194395 -1.05497 1.44546 0.00583184 -1.05497 3.40683 0.000972079 -0.632985 172.803 179.974 179.791 159.093 174.435 175.844 173.565 167.502 -179.37 170.922 161.878 165.842 176.525 -143.571 -101.55 63.0882 -34.7949 46.1226 -0 10.7281 13.4789 0.705659 21.6449 -1.52511 37.5274 -16.2559 -58.0728 111.574 31.3494 -123.793 -0 -5.59812 -28.2794 33.8022 28.3471 -11.9333 148.215 175.236 179.29 163.194 179.91 178.027 17.9988 0 0 25.1282 9.32514 3.61491 153.568 -176.06 179.804 174.11 -179.979 178.977 18.7984 0 0
 93.6832 91.1215 -186.391 166.865 -162.217 172.834 2.23321e-05 0.00194624 -0.657412 0.286593 0.00389203 -1.09569 1.30656 0.0116761 -1.09569 3.25047 0.00194624 -0.657412 172.957 179.973 179.783 159.633 174.676 175.524 173.739 167.782 -179.514 170.741 162.729 165.326 176.902 -143.052 -102.081 65.8561 -36.1646 50.4969 -0 9.5302 14.0427 0.790903 22.9758 -1.71294 32.9223 -15.2488 -59.3909 111.198 32.2279 -123.04 -0 -6.02098 -28.3933 33.6409 25.4969 -10.5264 150.567 176.307 179.345 163.615 179.95 179.293 18.0761 0 0 25.9218 8.81735 4.06252 152.736 -174.561 179.982 174.723 179.96 179.21 18.8134 0 0
 93.3865 90.9836 -185.952 166.949 -163.157 173.258 8.6243e-05 0.0071202 -0.693958 0.199981 0.0142385 -1.1566 1.20587 0.0427156 -1.1566 3.14916 0.0071202 -0.693958 173.029 179.972 179.77 159.911 175.247 175.41 173.852 168.811 -179.696 170.524 163.59 164.738 177.846 -142.337 -102.172 67.3492 -36.9887 52.832 -0 8.82915 13.8146 0.232563 23.7661 -0.504114 28.9559 -14.2743 -60.2933 110.537 33.8095 -121.223 -0 -6.95439 -27.49 32.9949 23.0685 -9.79598 152.715 177.041 179.542 163.97 179.951 -179.508 18.1287 0 0 26.7166 7.57962 4.15492 151.91 -172.706 179.774 174.4 179.89 179.298 18.8258 0 0
 92.8693 90.9135 -185.853 166.978 -163.911 173.807 1.91604e-05 0.00146388 -0.749892 0.139877 0.0029273 -1.24982 1.12182 0.00878191 -1.24982 3.03868 0.00146388 -0.749892 173.174 179.97 179.752 160.359 176.104 174.852 174.022 170.175 179.96 170.652 164.474 164.734 179.141 -141.687 -101.858 67.8918 -37.5102 53.6147 -0 8.39157 13.3707 0.123238 24.4604 -0.267321 25.1935 -13.5541 -61.653 109.896 35.5066 -119.182 -0 -7.95022 -26.2796 32.3979 21.1643 -9.01605 154.937 177.611 179.757 164.501 179.923 -178.443 18.1733 0 0 27.1633 6.36729 4.25251 151.17 -171.164 179.788 173.878 179.837 179.261 18.8363 0 0
 92.398 90.8876 -185.926 166.778 -164.196 174.138 0.000152791 0.0107358 -0.815376 0.0952247 0.0214677 -1.35896 1.051 0.0644032 -1.35896 2.92758 0.0107358 -0.815376 173.348 179.969 179.73 160.885 177.389 175.171 174.226 172.737 179.689 170.77 164.265 164.988 0.76336 -38.1244 78.8217 68.3889 -37.9295 54.5338 -0 7.78002 12.7761 0.297146 24.2529 -0.644437 20.9188 -12.6867 -63.6755 109.286 37.1859 -117.441 -0 -8.72512 -24.7964 31.2706 19.4658 -8.28163 157.368 178.056 179.605 165.208 179.944 -177.585 18.2049 0 0 27.6661 5.46141 4.41969 150.675 -170.159 179.846 173.194 179.859 179.239 18.8456 0 0
